<?xml version="1.0" encoding="utf-8"?>
<!-- Generator: Adobe Illustrator 16.0.0, SVG Export Plug-In . SVG Version: 6.00 Build 0)  -->
<!DOCTYPE svg PUBLIC "-//W3C//DTD SVG 1.1//EN" "http://www.w3.org/Graphics/SVG/1.1/DTD/svg11.dtd">
<svg version="1.1" id="Layer_1" xmlns="http://www.w3.org/2000/svg" xmlns:xlink="http://www.w3.org/1999/xlink" x="0px" y="0px"
	 width="700px" height="700px" viewBox="0 0 700 700" enable-background="new 0 0 700 700" xml:space="preserve">
<g>
	<g>
		<defs>
			<rect id="SVGID_1_" width="700.041" height="700"/>
		</defs>
		<clipPath id="SVGID_2_">
			<use xlink:href="#SVGID_1_"  overflow="visible"/>
		</clipPath>
		<path clip-path="url(#SVGID_2_)" fill="#F1E5C4" d="M-69.975,699.988c0,38.645,31.332,70.025,69.975,70.025
			c38.689,0,70.025-31.381,70.025-70.025S38.689,630.014,0,630.014C-38.643,630.014-69.975,661.344-69.975,699.988"/>
		<path clip-path="url(#SVGID_2_)" fill="#F1E5C4" d="M-69.975,350.009c0,38.631,31.332,70.008,69.975,70.008
			c38.689,0,70.025-31.377,70.025-70.008c0-38.643-31.336-69.979-70.025-69.979C-38.643,280.03-69.975,311.366-69.975,350.009"/>
		<path clip-path="url(#SVGID_2_)" fill="#F1E5C4" d="M279.995,699.988c0,38.645,31.384,70.025,70.022,70.025
			c38.691,0,70.026-31.381,70.026-70.025s-31.335-69.975-70.026-69.975C311.379,630.014,279.995,661.344,279.995,699.988"/>
	</g>
	<path fill="#F1E5C4" d="M279.995,350.009c0,38.631,31.384,70.008,70.022,70.008c38.691,0,70.026-31.377,70.026-70.008
		c0-38.643-31.335-69.979-70.026-69.979C311.379,280.03,279.995,311.366,279.995,350.009"/>
	<path fill="#F1E5C4" d="M105.01,175.011c0,38.653,31.382,70.032,70.023,70.032c38.643,0,69.975-31.379,69.975-70.032
		c0-38.666-31.332-69.998-69.975-69.998C136.392,105.013,105.01,136.345,105.01,175.011"/>
	<path fill="#F1E5C4" d="M105.01,525.005c0,38.641,31.382,69.975,70.023,69.975c38.643,0,69.975-31.334,69.975-69.975
		c0-38.69-31.332-70.024-69.975-70.024C136.392,454.98,105.01,486.314,105.01,525.005"/>
	<path fill="#F1E5C4" d="M455.033,175.011c0,38.653,31.332,70.032,70.021,70.032c38.639,0,69.975-31.379,69.975-70.032
		c0-38.666-31.336-69.998-69.975-69.998C486.365,105.013,455.033,136.345,455.033,175.011"/>
	<g>
		<defs>
			<rect id="SVGID_3_" width="700.041" height="700"/>
		</defs>
		<clipPath id="SVGID_4_">
			<use xlink:href="#SVGID_3_"  overflow="visible"/>
		</clipPath>
		<path clip-path="url(#SVGID_4_)" fill="#F1E5C4" d="M455.033,525.005c0,38.641,31.332,69.975,70.021,69.975
			c38.639,0,69.975-31.334,69.975-69.975c0-38.69-31.336-70.024-69.975-70.024C486.365,454.98,455.033,486.314,455.033,525.005"/>
		<path clip-path="url(#SVGID_4_)" fill="#F1E5C4" d="M-69.975-0.012C-69.975,38.631-38.643,70.01,0,70.01
			c38.689,0,70.025-31.379,70.025-70.021S38.689-69.986,0-69.986C-38.643-69.986-69.975-38.654-69.975-0.012"/>
		<path clip-path="url(#SVGID_4_)" fill="#F1E5C4" d="M279.995-0.012c0,38.643,31.384,70.021,70.022,70.021
			c38.691,0,70.026-31.379,70.026-70.021s-31.335-69.975-70.026-69.975C311.379-69.986,279.995-38.654,279.995-0.012"/>
		<path clip-path="url(#SVGID_4_)" fill="#F1E5C4" d="M630.063,699.988c0,38.645,31.333,70.025,69.978,70.025
			c38.689,0,70.02-31.381,70.02-70.025s-31.33-69.975-70.02-69.975C661.396,630.014,630.063,661.344,630.063,699.988"/>
		<path clip-path="url(#SVGID_4_)" fill="#F1E5C4" d="M630.063,350.009c0,38.631,31.333,70.008,69.978,70.008
			c38.689,0,70.02-31.377,70.02-70.008c0-38.643-31.33-69.979-70.02-69.979C661.396,280.03,630.063,311.366,630.063,350.009"/>
		<path clip-path="url(#SVGID_4_)" fill="#F1E5C4" d="M630.063-0.012c0,38.643,31.333,70.021,69.978,70.021
			c38.689,0,70.02-31.379,70.02-70.021s-31.33-69.975-70.02-69.975C661.396-69.986,630.063-38.654,630.063-0.012"/>
	</g>
</g>
</svg>
