<?xml version="1.0" encoding="utf-8"?>
<!-- Generator: Adobe Illustrator 16.0.0, SVG Export Plug-In . SVG Version: 6.00 Build 0)  -->
<!DOCTYPE svg PUBLIC "-//W3C//DTD SVG 1.1//EN" "http://www.w3.org/Graphics/SVG/1.1/DTD/svg11.dtd">
<svg version="1.1" id="Layer_1" xmlns="http://www.w3.org/2000/svg" xmlns:xlink="http://www.w3.org/1999/xlink" x="0px" y="0px"
	 width="98px" height="35.421px" viewBox="0 0 98 35.421" enable-background="new 0 0 98 35.421" xml:space="preserve">
<path d="M98,3.168c0-0.606-0.56-1.118-1.165-1.118h-6.105c-0.605,0-1.119,0.512-1.119,1.118v18.177L80.522,2.982
	c-0.373-0.746-0.932-0.932-1.585-0.932h-8.389c-0.653,0-1.165,0.512-1.165,1.118v30.388c0,0.653,0.512,1.119,1.165,1.119h6.104
	c0.653,0,1.119-0.466,1.119-1.119V14.587l9.602,18.922c0.419,0.839,1.212,1.166,2.423,1.166h7.038c0.605,0,1.165-0.466,1.165-1.119
	V3.168z M56.166,4.987c0,2.75,2.236,4.987,4.986,4.987s4.987-2.237,4.987-4.987S63.902,0,61.152,0S56.166,2.237,56.166,4.987
	 M65.161,33.557v-20.88c0-0.606-0.467-1.072-1.072-1.072h-5.872c-0.606,0-1.119,0.466-1.119,1.072v20.88
	c0,0.606,0.513,1.119,1.119,1.119h5.872C64.694,34.676,65.161,34.163,65.161,33.557 M41.881,9.601c2.004,0,3.589,1.352,3.589,3.542
	c0,2.191-1.585,3.589-3.682,3.589h-5.175V9.601H41.881z M54.231,13.283c0-6.199-4.241-11.232-10.905-11.232H29.39
	c-0.652,0-1.165,0.512-1.165,1.118v30.388c0,0.653,0.513,1.119,1.165,1.119h6.106c0.605,0,1.117-0.466,1.117-1.119v-9.275h5.314
	C49.851,24.281,54.231,19.574,54.231,13.283 M0.979,11.745c0,5.127,3.262,7.69,6.432,9.042c4.241,1.817,9.181,2.051,9.181,4.707
	c0,1.259-1.025,2.377-3.216,2.377c-2.749,0-4.753-1.397-6.292-3.075c-0.466-0.514-0.792-0.839-1.444-0.839
	c-0.327,0-0.746,0.093-1.119,0.419l-3.682,2.937C0.187,27.823,0,28.29,0,28.757c0,0.699,0.466,1.491,1.026,2.143
	c2.05,2.424,6.245,4.521,11.838,4.521c8.109,0,12.91-4.428,12.91-10.533c0-3.961-2.004-6.525-4.567-8.016
	c-2.796-1.631-6.338-2.145-8.902-3.31c-1.584-0.699-2.237-1.352-2.237-2.377c0-1.445,1.305-2.144,3.076-2.144
	c2.191,0,3.589,1.118,4.661,2.33c0.42,0.466,0.746,0.699,1.258,0.699c0.467,0,0.933-0.186,1.306-0.512l3.448-3.123
	c0.327-0.28,0.699-0.699,0.699-1.258c0-0.42-0.186-1.026-1.211-2.098c-1.492-1.538-4.754-3.728-9.974-3.728
	C6.292,1.352,0.979,5.359,0.979,11.745"/>
</svg>
