<?xml version="1.0" encoding="utf-8"?>
<!-- Generator: Adobe Illustrator 16.0.0, SVG Export Plug-In . SVG Version: 6.00 Build 0)  -->
<!DOCTYPE svg PUBLIC "-//W3C//DTD SVG 1.1//EN" "http://www.w3.org/Graphics/SVG/1.1/DTD/svg11.dtd">
<svg version="1.1" id="Layer_1" xmlns="http://www.w3.org/2000/svg" xmlns:xlink="http://www.w3.org/1999/xlink" x="0px" y="0px"
	 width="104.457px" height="37.755px" viewBox="0 0 104.457 37.755" enable-background="new 0 0 104.457 37.755"
	 xml:space="preserve">
<path fill="#FFFFFF" d="M104.456,3.378c0-0.645-0.596-1.192-1.242-1.192h-6.507c-0.646,0-1.192,0.547-1.192,1.192v19.375
	L85.827,3.18c-0.396-0.795-0.993-0.994-1.688-0.994h-8.942c-0.695,0-1.242,0.547-1.242,1.192v32.39c0,0.696,0.547,1.192,1.242,1.192
	h6.508c0.696,0,1.192-0.496,1.192-1.192V15.549L93.13,35.718c0.447,0.895,1.292,1.242,2.583,1.242h7.501
	c0.646,0,1.242-0.496,1.242-1.192V3.378z M59.866,5.316c0,2.931,2.384,5.315,5.315,5.315c2.931,0,5.315-2.384,5.315-5.315
	C70.497,2.385,68.112,0,65.182,0C62.25,0,59.866,2.385,59.866,5.316 M69.454,35.768V13.513c0-0.646-0.497-1.143-1.143-1.143h-6.26
	c-0.646,0-1.192,0.497-1.192,1.143v22.255c0,0.646,0.547,1.192,1.192,1.192h6.26C68.957,36.96,69.454,36.414,69.454,35.768
	 M44.641,10.234c2.136,0,3.824,1.44,3.824,3.775s-1.688,3.825-3.925,3.825h-5.514v-7.6H44.641z M57.805,14.158
	c0-6.607-4.521-11.972-11.624-11.972H31.326c-0.695,0-1.242,0.547-1.242,1.192v32.39c0,0.696,0.547,1.192,1.242,1.192h6.508
	c0.646,0,1.192-0.496,1.192-1.192v-9.886h5.663C53.135,25.882,57.805,20.864,57.805,14.158 M1.043,12.519
	c0,5.465,3.477,8.197,6.855,9.637c4.521,1.938,9.787,2.187,9.787,5.019c0,1.341-1.093,2.533-3.428,2.533
	c-2.931,0-5.067-1.49-6.706-3.278c-0.497-0.547-0.845-0.894-1.54-0.894c-0.348,0-0.795,0.099-1.193,0.446L0.894,29.11
	C0.198,29.657,0,30.154,0,30.65c0,0.745,0.497,1.59,1.093,2.285c2.185,2.584,6.656,4.819,12.618,4.819
	c8.644,0,13.76-4.719,13.76-11.228c0-4.223-2.137-6.955-4.868-8.544c-2.981-1.739-6.756-2.286-9.488-3.528
	c-1.689-0.745-2.385-1.44-2.385-2.533c0-1.54,1.391-2.285,3.279-2.285c2.335,0,3.825,1.192,4.968,2.484
	c0.447,0.496,0.794,0.745,1.341,0.745c0.497,0,0.993-0.199,1.391-0.547l3.676-3.328c0.349-0.298,0.745-0.745,0.745-1.341
	c0-0.448-0.198-1.093-1.291-2.236c-1.59-1.639-5.068-3.974-10.631-3.974C6.706,1.441,1.043,5.713,1.043,12.519"/>
</svg>
