<?xml version="1.0" encoding="utf-8"?>
<!-- Generator: Adobe Illustrator 16.0.0, SVG Export Plug-In . SVG Version: 6.00 Build 0)  -->
<!DOCTYPE svg PUBLIC "-//W3C//DTD SVG 1.1//EN" "http://www.w3.org/Graphics/SVG/1.1/DTD/svg11.dtd">
<svg version="1.1" id="Layer_1" xmlns="http://www.w3.org/2000/svg" xmlns:xlink="http://www.w3.org/1999/xlink" x="0px" y="0px"
	 width="76.958px" height="76.958px" viewBox="0 0 76.958 76.958" enable-background="new 0 0 76.958 76.958" xml:space="preserve">
<path d="M70.812,44.292c-21.556,0-43.113,0-64.669,0c-3.209,0-5.813-2.601-5.813-5.813c0-3.212,2.604-5.812,5.813-5.812
	c21.556,0,43.113,0,64.669,0c3.209,0,5.812,2.6,5.812,5.812C76.625,41.692,74.021,44.292,70.812,44.292z"/>
<path d="M70.812,22.817c-21.556,0-43.113,0-64.669,0c-3.209,0-5.813-2.603-5.813-5.813c0-3.212,2.604-5.814,5.813-5.814
	c21.556,0,43.113,0,64.669,0c3.209,0,5.812,2.602,5.812,5.814C76.625,20.213,74.021,22.817,70.812,22.817z"/>
<path d="M70.812,65.767c-21.556,0-43.113,0-64.669,0c-3.209,0-5.813-2.601-5.813-5.812c0-3.208,2.604-5.813,5.813-5.813
	c21.556,0,43.113,0,64.669,0c3.209,0,5.812,2.605,5.812,5.813C76.625,63.168,74.021,65.767,70.812,65.767z"/>
</svg>
