<?xml version="1.0" encoding="utf-8"?>
<!-- Generator: Adobe Illustrator 16.0.0, SVG Export Plug-In . SVG Version: 6.00 Build 0)  -->
<!DOCTYPE svg PUBLIC "-//W3C//DTD SVG 1.1//EN" "http://www.w3.org/Graphics/SVG/1.1/DTD/svg11.dtd">
<svg version="1.1" id="Layer_1" xmlns="http://www.w3.org/2000/svg" xmlns:xlink="http://www.w3.org/1999/xlink" x="0px" y="0px"
	 width="40.596px" height="20.69px" viewBox="0 0 40.596 20.69" enable-background="new 0 0 40.596 20.69" xml:space="preserve">
<path fill="#FFFFFF" d="M40.596,10.352c0,0.418-0.151,0.646-0.531,0.95L29.69,20.536c-0.381,0.305-0.723,0.114-0.988-0.189
	l-1.862-1.824c-0.304-0.38-0.189-0.798,0.114-1.14l4.065-4.712H0.608C0.19,12.67,0,12.442,0,12.062V8.68
	C0,8.3,0.19,8.072,0.608,8.072H31.02l-4.065-4.75C26.612,2.98,26.536,2.6,26.84,2.22l1.862-1.9c0.266-0.342,0.646-0.456,0.988-0.114
	L40.064,9.44C40.444,9.744,40.596,9.972,40.596,10.352"/>
</svg>
