<?xml version="1.0" encoding="utf-8"?>
<!-- Generator: Adobe Illustrator 16.0.0, SVG Export Plug-In . SVG Version: 6.00 Build 0)  -->
<!DOCTYPE svg PUBLIC "-//W3C//DTD SVG 1.1//EN" "http://www.w3.org/Graphics/SVG/1.1/DTD/svg11.dtd">
<svg version="1.1" id="Layer_1" xmlns="http://www.w3.org/2000/svg" xmlns:xlink="http://www.w3.org/1999/xlink" x="0px" y="0px"
	 width="40.596px" height="20.69px" viewBox="0 0 40.596 20.69" enable-background="new 0 0 40.596 20.69" xml:space="preserve">
<path fill="#FFFFFF" d="M0,10.337c0-0.418,0.151-0.646,0.531-0.95l10.374-9.233c0.381-0.305,0.723-0.114,0.988,0.189l1.862,1.824
	c0.304,0.38,0.189,0.798-0.114,1.14L9.576,8.019h30.412c0.418,0,0.607,0.229,0.607,0.608v3.382c0,0.38-0.189,0.608-0.607,0.608
	H9.576l4.065,4.75c0.342,0.342,0.418,0.722,0.114,1.102l-1.862,1.9c-0.266,0.342-0.646,0.456-0.988,0.114L0.531,11.25
	C0.151,10.946,0,10.717,0,10.337"/>
</svg>
