<?xml version="1.0" encoding="utf-8"?>
<!-- Generator: Adobe Illustrator 16.0.0, SVG Export Plug-In . SVG Version: 6.00 Build 0)  -->
<!DOCTYPE svg PUBLIC "-//W3C//DTD SVG 1.1//EN" "http://www.w3.org/Graphics/SVG/1.1/DTD/svg11.dtd">
<svg version="1.1" id="Default" xmlns="http://www.w3.org/2000/svg" xmlns:xlink="http://www.w3.org/1999/xlink" x="0px" y="0px"
	 width="40px" height="80.001px" viewBox="0 0 40 80.001" enable-background="new 0 0 40 80.001" xml:space="preserve">
<g id="SPLINE_59_">
	<g id="XMLID_1_">
		<g>
			<path fill="#FFFFFF" d="M34.974,14.608c0.45,1.88,0.68,3.8,0.68,5.76c0,1.95-0.229,3.851-0.699,5.681
				c-0.46,1.829-1.16,3.55-2.08,5.149c-0.931,1.601-2.09,2.98-3.48,4.15c-0.28,0.229-0.57,0.31-0.859,0.229
				c-0.29-0.08-0.53-0.229-0.711-0.46c-0.189-0.229-0.289-0.5-0.3-0.81c-0.01-0.3,0.12-0.57,0.4-0.79c1.18-0.94,2.16-2.11,2.95-3.5
				c0.779-1.4,1.38-2.92,1.79-4.561c0.399-1.649,0.6-3.359,0.609-5.14c0.011-1.78-0.189-3.52-0.58-5.22c-0.399-1.7-1-3.3-1.79-4.81
				c-0.8-1.51-1.79-2.81-2.979-3.91c-0.28-0.25-0.4-0.52-0.37-0.83c0.03-0.3,0.15-0.56,0.35-0.77c0.19-0.21,0.44-0.34,0.74-0.38
				s0.59,0.07,0.87,0.32c1.36,1.31,2.5,2.81,3.42,4.51C33.844,10.928,34.523,12.718,34.974,14.608z"/>
			<path fill="#FFFFFF" d="M27.514,24.088c0.3-1.24,0.45-2.53,0.46-3.87c0-1.351-0.14-2.66-0.43-3.95
				c-0.29-1.28-0.73-2.49-1.32-3.62s-1.33-2.11-2.22-2.93c-0.28-0.25-0.4-0.53-0.37-0.83c0.04-0.31,0.15-0.56,0.35-0.77
				c0.2-0.2,0.45-0.32,0.75-0.36c0.29-0.04,0.58,0.07,0.86,0.33c1.05,1.02,1.92,2.19,2.62,3.52c0.71,1.32,1.229,2.71,1.57,4.18
				c0.35,1.46,0.52,2.95,0.51,4.47c-0.01,1.529-0.19,3-0.55,4.42c-0.351,1.43-0.891,2.76-1.61,4c-0.73,1.25-1.62,2.33-2.7,3.239
				c-0.28,0.24-0.56,0.32-0.86,0.261c-0.3-0.07-0.539-0.21-0.729-0.44c-0.18-0.22-0.28-0.49-0.29-0.79c0-0.31,0.15-0.58,0.45-0.82
				c0.88-0.689,1.6-1.56,2.189-2.609C26.773,26.468,27.214,25.318,27.514,24.088z"/>
			<path fill="#FFFFFF" d="M19.943,28.068c-0.18-0.229-0.27-0.49-0.279-0.8c-0.011-0.3,0.14-0.57,0.449-0.79
				c0.54-0.4,0.99-0.93,1.36-1.61c0.36-0.67,0.63-1.42,0.811-2.24c0.18-0.819,0.27-1.68,0.27-2.579c0-0.891-0.09-1.771-0.28-2.61
				c-0.18-0.85-0.46-1.63-0.819-2.34c-0.37-0.72-0.811-1.3-1.341-1.77c-0.279-0.24-0.409-0.5-0.39-0.8
				c0.021-0.3,0.13-0.56,0.33-0.77c0.2-0.22,0.44-0.36,0.74-0.42s0.59,0.04,0.87,0.29c0.71,0.69,1.31,1.48,1.8,2.39
				c0.479,0.9,0.84,1.86,1.09,2.88c0.24,1.02,0.36,2.06,0.36,3.13c-0.011,1.08-0.141,2.11-0.38,3.12c-0.25,1-0.62,1.95-1.12,2.83
				c-0.511,0.89-1.141,1.649-1.891,2.28c-0.279,0.25-0.569,0.34-0.87,0.27C20.354,28.458,20.124,28.308,19.943,28.068z"/>
			<polygon fill="#FFFFFF" points="21.063,50.958 2.634,70.508 1.714,69.648 20.144,50.098 			"/>
			<polygon fill="#FFFFFF" points="15.534,58.748 15.534,70.988 9.464,64.968 			"/>
			<polygon fill="#FFFFFF" points="15.534,48.868 15.534,53.528 5.574,63.738 4.354,63.738 4.354,56.138 8.224,56.138 			"/>
			<polygon fill="#FFFFFF" points="15.534,8.868 15.534,30.988 8.224,23.738 4.354,23.738 4.354,16.138 8.224,16.138 			"/>
		</g>
		<g>
		</g>
	</g>
</g>
</svg>
