<?xml version="1.0" encoding="utf-8"?>
<!-- Generator: Adobe Illustrator 16.0.0, SVG Export Plug-In . SVG Version: 6.00 Build 0)  -->
<!DOCTYPE svg PUBLIC "-//W3C//DTD SVG 1.1//EN" "http://www.w3.org/Graphics/SVG/1.1/DTD/svg11.dtd">
<svg version="1.1" id="Layer_1" xmlns="http://www.w3.org/2000/svg" xmlns:xlink="http://www.w3.org/1999/xlink" x="0px" y="0px"
	 width="30px" height="60px" viewBox="0 -15 30 60" enable-background="new 0 -15 30 60" xml:space="preserve">
<path d="M20.632-4.703h-2.825c-0.166,0-0.363,0.085-0.591,0.25c-0.227,0.166-0.34,0.394-0.34,0.679v0.966h2.789v3.719h-2.789v7.51
	h-3.753v-7.51h-2.824v-3.719h2.824v-1.895c0-0.452,0.107-0.905,0.322-1.358c0.215-0.453,0.518-0.857,0.912-1.216
	c0.393-0.358,0.852-0.644,1.375-0.858c0.524-0.214,1.097-0.322,1.716-0.322h3.184V-4.703z M29.999-0.019
	c0-2.074-0.394-4.018-1.181-5.829c-0.786-1.811-1.86-3.396-3.219-4.755c-1.357-1.359-2.949-2.433-4.772-3.218
	C19.003-14.607,17.057-15,14.982-15c-2.074,0-4.018,0.393-5.83,1.18c-1.811,0.785-3.395,1.859-4.754,3.217S1.966-7.658,1.181-5.848
	C0.394-4.036,0-2.093,0-0.019s0.395,4.022,1.182,5.846C1.967,7.65,3.039,9.242,4.399,10.6c1.36,1.358,2.943,2.432,4.754,3.219
	S12.908,15,14.982,15c2.075,0,4.021-0.395,5.845-1.182c1.823-0.787,3.416-1.859,4.772-3.219c1.357-1.358,2.433-2.949,3.219-4.772
	C29.605,4.004,29.999,2.055,29.999-0.019"/>
<path fill="#FF4338" d="M20.632,25.297h-2.825c-0.166,0-0.363,0.085-0.591,0.25c-0.227,0.166-0.34,0.395-0.34,0.68v0.965h2.789v3.72
	h-2.789v7.51h-3.753v-7.51h-2.824v-3.72h2.824v-1.895c0-0.451,0.107-0.904,0.322-1.357c0.215-0.453,0.518-0.857,0.912-1.217
	c0.393-0.357,0.852-0.644,1.375-0.857c0.524-0.215,1.097-0.322,1.716-0.322h3.184V25.297z M29.999,29.98
	c0-2.073-0.394-4.018-1.181-5.828c-0.786-1.812-1.86-3.396-3.219-4.756c-1.357-1.358-2.949-2.433-4.772-3.217
	C19.003,15.393,17.057,15,14.982,15c-2.074,0-4.018,0.393-5.83,1.18c-1.811,0.785-3.395,1.859-4.754,3.217
	c-1.359,1.358-2.432,2.945-3.217,4.756C0.394,25.964,0,27.907,0,29.98c0,2.074,0.395,4.022,1.182,5.847
	c0.785,1.823,1.857,3.415,3.217,4.772c1.36,1.358,2.943,2.432,4.754,3.219S12.908,45,14.982,45c2.075,0,4.021-0.395,5.845-1.182
	c1.823-0.787,3.416-1.859,4.772-3.219c1.357-1.358,2.433-2.949,3.219-4.772C29.605,34.004,29.999,32.055,29.999,29.98"/>
</svg>
